<svg width="96" height="72" viewBox="0 0 96 72" fill="none" xmlns="http://www.w3.org/2000/svg">
<path fill-rule="evenodd" clip-rule="evenodd" d="M36.8346 31.0066L36.0312 30.4041L36.3795 30.0354C36.3561 29.4417 36.629 28.7349 37.1489 28.1488C37.719 27.5062 38.4689 27.1413 39.0998 27.1551L39.4455 26.7891L40.048 27.5924L40.0369 27.6042C40.5036 28.2243 40.3177 29.3418 39.5148 30.2471C38.6636 31.206 37.4938 31.5052 36.8374 31.0037L36.8346 31.0066Z" fill="url(#paint0_linear_310_15540)"/>
<path d="M38.9645 29.6818C39.8773 28.6529 40.0561 27.3209 39.3638 26.7067C38.6715 26.0925 37.3703 26.4286 36.4575 27.4574C35.5447 28.4863 35.3659 29.8182 36.0582 30.4325C36.7505 31.0467 38.0517 30.7106 38.9645 29.6818Z" fill="url(#paint1_linear_310_15540)"/>
<path d="M38.9757 29.6999C39.8829 28.6774 40.0515 27.3455 39.3522 26.7251C38.6529 26.1047 37.3506 26.4307 36.4434 27.4532C35.5362 28.4758 35.3677 29.8076 36.0669 30.428C36.7662 31.0485 38.0685 30.7225 38.9757 29.6999Z" fill="#0052FE"/>
<path d="M9.53252 36.0614L18.4272 26.5312H13.6971L4.25051 36.4542V26.5312H0V46.2631H4.25051V41.6109L6.73366 39.0337L12.6487 46.2631H17.6399L10.1342 36.8189L9.53252 36.0606V36.0614Z" fill="#0052FE"/>
<path d="M32.1346 35.3012C30.8123 33.2037 28.3862 31.9062 25.4282 31.9062C22.2671 31.9062 19.7004 33.3892 18.4488 35.739C17.9081 36.7456 17.6133 37.9145 17.6133 39.191C17.6133 43.4503 20.9118 46.4758 25.4282 46.4758C29.9447 46.4758 33.2183 43.4503 33.2183 39.191C33.2183 37.7233 32.8287 36.401 32.1346 35.3012V35.3012ZM25.4282 43.1089C23.3685 43.1089 21.7835 41.6364 21.7835 39.191C21.7835 37.0878 22.9531 35.7045 24.5912 35.359C24.8587 35.3004 25.139 35.2715 25.4282 35.2715C25.6315 35.2715 25.8267 35.2843 26.0187 35.3157C27.7772 35.5695 29.0457 36.9842 29.0457 39.191C29.0457 41.6364 27.4888 43.1089 25.429 43.1089H25.4282Z" fill="#0052FE"/>
<path d="M40.0836 32.1172H35.9648V46.2649H40.0836V32.1172Z" fill="#0052FE"/>
<path d="M52.5484 31.9062C50.6204 31.9062 48.9567 32.565 47.8481 33.7732V32.1167H43.9141V46.2645H48.032V39.2689C48.032 38.2406 48.2537 37.4301 48.6482 36.8284C49.2459 35.9005 50.242 35.4578 51.4398 35.4578C53.0586 35.4578 54.0724 36.2877 54.278 38.0752C54.3046 38.2985 54.3174 38.5411 54.3174 38.7966V46.2637H56.5861L58.4386 43.6914V38.1667C58.4386 33.852 55.9024 31.9062 52.5484 31.9062V31.9062Z" fill="#0052FE"/>
<path d="M79.8472 26.4688L59.6406 46.2688H65.93L67.7761 43.6443L78.2317 28.7679L79.8472 26.4688Z" fill="url(#paint2_linear_310_15540)"/>
<path d="M73.8912 26.4688L73.2453 27.3669L63.1047 41.4544L59.6406 46.2688L79.8472 26.4688H73.8912Z" fill="url(#paint3_linear_310_15540)"/>
<path d="M77.8478 42.8143L77.5867 42.4448C77.369 42.1363 77.0148 41.9531 76.6388 41.9531H71.8854C71.7094 41.9531 71.5729 42.0576 71.5078 42.1965L80.294 46.2719L77.8478 42.8143Z" fill="#F69300"/>
<path d="M71.5056 42.1953C71.4477 42.319 71.4469 42.4701 71.5329 42.6018L72.509 44.0872H72.5114L73.9469 46.2707H80.2926L71.5064 42.1953H71.5056Z" fill="url(#paint4_linear_310_15540)"/>
<path d="M68.6496 30.1328L67.1449 27.9236L66.1536 26.4688H59.9453L68.5524 30.7032C68.7211 30.5771 68.7845 30.3312 68.6504 30.1328H68.6496Z" fill="url(#paint5_linear_310_15540)"/>
<path d="M59.9453 26.4696L62.594 30.2879C62.6052 30.3031 62.6156 30.316 62.6269 30.3312C62.8462 30.618 63.186 30.7875 63.5491 30.7875H68.3049C68.4022 30.7875 68.4849 30.7538 68.5532 30.7032L59.9461 26.4688L59.9453 26.4696Z" fill="#F69300"/>
<path d="M88.5811 27.2261H86.9087V31.6124H85.7785V27.2261H84.1289V26.3906H88.5811V27.2261ZM90.6931 26.3906L92.0973 30.1619L93.4957 26.3906H94.9741V31.6124H93.8325V30.1619L93.9581 27.6903L92.4797 31.6124H91.7091L90.2365 27.6961L90.3506 30.1619V31.6124H89.2261V26.3906H90.6931V26.3906Z" fill="black"/>
<defs>
<linearGradient id="paint0_linear_310_15540" x1="40.1479" y1="27.7932" x2="37.1354" y2="31.3075" gradientUnits="userSpaceOnUse">
<stop stop-color="#3372F5"/>
<stop offset="0.249995" stop-color="#3372F5"/>
<stop offset="0.505208" stop-color="#80DBFB"/>
<stop offset="0.838547" stop-color="#3372F5"/>
<stop offset="1" stop-color="#3372F5"/>
</linearGradient>
<linearGradient id="paint1_linear_310_15540" x1="44.6073" y1="27.7791" x2="43.8014" y2="28.6863" gradientUnits="userSpaceOnUse">
<stop stop-color="#0080D4"/>
<stop offset="0.47" stop-color="white"/>
<stop offset="0.6" stop-color="#F1F8FC"/>
<stop offset="1" stop-color="#007DCC"/>
</linearGradient>
<linearGradient id="paint2_linear_310_15540" x1="75.3075" y1="31.7821" x2="67.4789" y2="40.839" gradientUnits="userSpaceOnUse">
<stop stop-color="#FFAC00"/>
<stop offset="1" stop-color="#FE7801"/>
</linearGradient>
<linearGradient id="paint3_linear_310_15540" x1="59.6406" y1="36.3692" x2="79.8472" y2="36.3692" gradientUnits="userSpaceOnUse">
<stop stop-color="#FFCE00"/>
<stop offset="1" stop-color="#FFB003"/>
</linearGradient>
<linearGradient id="paint4_linear_310_15540" x1="71.4646" y1="44.2334" x2="80.2918" y2="44.2334" gradientUnits="userSpaceOnUse">
<stop stop-color="#FE8B01"/>
<stop offset="1" stop-color="#FE7801"/>
</linearGradient>
<linearGradient id="paint5_linear_310_15540" x1="59.9445" y1="28.5856" x2="68.7227" y2="28.5856" gradientUnits="userSpaceOnUse">
<stop stop-color="#FFCE00"/>
<stop offset="1" stop-color="#FFC101"/>
</linearGradient>
</defs>
</svg>
